<svg width="64" height="64" viewBox="0 0 64 64" fill="none" xmlns="http://www.w3.org/2000/svg">
  <defs>
    <linearGradient id="logoBg" x1="0" y1="0" x2="1" y2="1">
      <stop offset="0%" stop-color="#1c342a"/>
      <stop offset="100%" stop-color="#0f1f19"/>
    </linearGradient>
  </defs>
  <rect width="64" height="64" rx="18" fill="url(#logoBg)"/>
  <path d="M23 33C23 24 28.5 17 36 14C31 19.5 28.5 26 28.5 33C28.5 40 31 46.5 36 52C28.5 49 23 42 23 33Z" fill="#f0c064"/>
  <path d="M27 20C27 19.4477 27.4477 19 28 19H31C31.5523 19 32 19.4477 32 20V46C32 46.5523 31.5523 47 31 47H28C27.4477 47 27 46.5523 27 46V20Z" fill="#5c8a6c" opacity="0.9"/>
  <path d="M35 24C35 23.4477 35.4477 23 36 23H39C39.5523 23 40 23.4477 40 24V42C40 42.5523 39.5523 43 39 43H36C35.4477 43 35 42.5523 35 42V24Z" fill="#7fae86" opacity="0.9"/>
  <circle cx="47" cy="20" r="2.2" fill="#f0c064"/>
  <circle cx="49" cy="40" r="1.6" fill="#f0c064" opacity="0.85"/>
</svg>
