<svg width="64" height="64" viewBox="0 0 64 64" fill="none" xmlns="http://www.w3.org/2000/svg">
  <rect width="64" height="64" rx="16" fill="#F5FAEE"/>
  <path d="M25 11C24.4477 11 24 11.4477 24 12V52C24 52.5523 24.4477 53 25 53H31C31.5523 53 32 52.5523 32 52V12C32 11.4477 31.5523 11 31 11H25Z" fill="#2F8F55"/>
  <path d="M37 8C36.4477 8 36 8.44772 36 9V49C36 49.5523 36.4477 50 37 50H43C43.5523 50 44 49.5523 44 49V9C44 8.44772 43.5523 8 43 8H37Z" fill="#6FBF73"/>
  <path d="M24 23H32" stroke="#D5E675" stroke-width="3" stroke-linecap="round"/>
  <path d="M24 38H32" stroke="#D5E675" stroke-width="3" stroke-linecap="round"/>
  <path d="M36 20H44" stroke="#F3F8ED" stroke-width="3" stroke-linecap="round"/>
  <path d="M36 35H44" stroke="#F3F8ED" stroke-width="3" stroke-linecap="round"/>
  <path d="M20 26C13 24 9 18 9 18C18 16 24 19 27 25C24.8 26.3 22.5 26.8 20 26Z" fill="#7AB866"/>
  <path d="M48 26C55 24 59 18 59 18C50 16 44 19 41 25C43.2 26.3 45.5 26.8 48 26Z" fill="#A6C96F"/>
  <path d="M18 43C11 42 6 36 6 36C15 33 22 36 26 42C23.4 43.4 20.8 43.8 18 43Z" fill="#A6C96F"/>
  <path d="M48 43C55 42 60 36 60 36C51 33 44 36 40 42C42.6 43.4 45.2 43.8 48 43Z" fill="#7AB866"/>
</svg>
